Lifeforce 1985 BRRip XviD PsiX


[img]http://www.freeimgshost.com/fullsize/1a1numkxerxlwmjicmmp.jpg[/img]

[img]http://www.freeimgshost.com/fullsize/midlr3wf0gvm3udcztw.jpg[/img]







The crew of the space shuttle Churchill finds a 150-mile long spaceship 
hidden in the corona of Halley's comet. The crew finds hundreds of dead,
 shrivelled bat-like creatures and three naked humanoid bodies (two male 
and one female) in suspended animation within glass containers. The crew 
recovers the three aliens and begins the return trip to Earth.

During the return journey, mission control loses contact with the shuttle 
and a rescue mission is launched to investigate. The rescuers discover that 
the Churchill has been severely damaged by fire, with its internal components
 destroyed, and the three containers bearing the aliens are all that remain
 intact. The aliens are taken to the European Space Research Centre in
 London where they...



Directed by............Tobe Hooper
Produced by.............Yoram Globus
Menahem Golan

Screenplay by...........Dan O'Bannon
Don Jakoby

Based on 	The Space Vampires 
by Colin Wilson

Starring..........Steve Railsback
Peter Firth
Frank Finlay
Mathilda May

Music by.........Henry Mancini 





[img]http://www.freeimgshost.com/fullsize/l3b7vwyftlfg33tt91d.png[/img]

[img]http://www.freeimgshost.com/fullsize/frs9ticdm3hgih3in5zb.png[/img]

[img]http://www.freeimgshost.com/fullsize/0k94injuy0x31z0slw.png[/img]

[img]http://www.freeimgshost.com/fullsize/jh3rw08q3arvrs2hul3b.png[/img]

[img]http://www.freeimgshost.com/fullsize/6cyyzesxn0yvoormm74d.png[/img]




Lifeforce.1985.BRRip.XviD-PsiX.avi
Format : AVI
Format/Info : Audio Video Interleave
File size : 692 MiB
Duration : 1h 56mn
Overall bit rate : 833 Kbps

Video
ID : 0
Format : MPEG-4 Visual
Format profile : Advanced Simple@L5
Format settings, BVOP : 2
Format settings, QPel : No
Format settings, GMC : No warppoints
Format settings, Matrix : Default (H.263)
Muxing mode : Packed bitstream
Codec ID : XVID
Codec ID/Hint : XviD
Duration : 1h 56mn
Bit rate : 699 Kbps
Width : 640 pixels
Height : 272 pixels
Display aspect ratio : 2.35:1
Frame rate : 23.976 fps
Color space : YUV
Chroma subsampling : 4:2:0
Bit depth : 8 bits
Scan type : Progressive
Compression mode : Lossy
Bits/(Pixel*Frame) : 0.167
Stream size : 581 MiB (84%)
Writing library : XviD 1.2.1 (UTC 2008-12-04)

Audio
ID : 1
Format : MPEG Audio
Format version : Version 1
Format profile : Layer 3
Mode : Joint stereo
Mode extension : MS Stereo
Codec ID : 55
Codec ID/Hint : MP3
Duration : 1h 56mn
Bit rate mode : Constant
Bit rate : 128 Kbps
Channel(s) : 2 channels
Sampling rate : 48.0 KHz
Compression mode : Lossy
Stream size : 106 MiB (15%)
Alignment : Aligned on interleaves
Interleave, duration : 167 ms (4.00 video frames)
Interleave, preload duration : 216 ms
Title : Lifeforce.1985.1080p.BluRay.x264-HD4U - [0] English
Writing library : LAME3.99r
Encoding settings : -m j -V 4 -q 2 -lowpass 17 -b 128




Encoded............: PsiX
Source.............: 1080p-HD4U
Subs..........No






[img]http://s13.postimage.org/4sw23sxev/112.png[/img]
[img]http://s13.postimage.org/qhuy7nzmv/114.gif[/img]
[img]http://s13.postimage.org/7bhr4hj53/113.gif[/img]